<?xml version="1.0" encoding="UTF-8"?>
<svg id="Capa_1" data-name="Capa 1" xmlns="http://www.w3.org/2000/svg" viewBox="0 0 596 681">
  <defs>
    <style>
      .cls-1 {
        fill: #fff;
      }

      .cls-2 {
        fill: none;
        stroke: #000;
        stroke-linecap: round;
        stroke-linejoin: round;
        stroke-width: 7px;
      }
    </style>
  </defs>
  <polygon class="cls-2" points="45.23 194.14 45.23 194.72 45.23 486.86 45.23 487.44 44.73 487.15 44.73 194.43 45.23 194.14"/>
  <polygon points="551.23 194.14 551.23 194.72 466.9 243.41 382.56 292.1 298.23 340.79 213.9 292.1 129.56 243.41 45.23 194.72 45.23 194.14 129.56 145.45 213.9 96.76 298.23 48.07 382.56 96.76 466.9 145.45 551.23 194.14"/>
  <polygon class="cls-1" points="551.73 194.43 551.73 487.15 551.23 487.44 551.23 486.86 551.23 194.72 551.23 194.14 551.73 194.43"/>
  <polygon class="cls-1" points="466.9 536.13 382.56 584.81 382.56 487.73 466.9 439.13 466.9 535.84 467.02 535.91 466.9 536.13"/>
  <polygon class="cls-1" points="298.23 438.46 298.23 536.12 213.9 487.43 213.65 487.29 129.56 438.74 129.07 438.46 129.56 438.17 129.56 341.07 213.65 389.62 213.9 389.48 213.9 389.77 298.23 438.46"/>
  <polygon class="cls-1" points="298.23 536.12 298.23 633.51 213.9 584.82 213.9 584.81 213.89 584.81 129.56 536.13 129.56 535.84 129.31 535.98 45.23 487.44 45.23 486.86 45.23 194.72 129.56 243.41 213.9 292.1 298.23 340.79 298.23 438.46 213.9 389.77 213.9 389.48 213.65 389.62 129.56 341.07 129.56 438.17 129.07 438.46 129.56 438.74 213.65 487.29 213.9 487.43 298.23 536.12"/>
  <path class="cls-1" d="m595.96,181.4v318.79c0,7.73-4.13,14.88-10.82,18.74l-276.08,159.4c-6.7,3.87-14.96,3.87-21.66,0L11.32,518.93c-6.69-3.86-10.82-11.01-10.82-18.74V181.4c0-7.74,4.13-14.89,10.82-18.75L287.4,3.25c6.7-3.87,14.96-3.87,21.66,0l276.08,159.4c6.69,3.86,10.82,11.01,10.82,18.75Zm-44.23,305.75V194.43l-.5-.29-84.33-48.69-84.34-48.69-84.33-48.69-84.33,48.69-84.34,48.69-84.33,48.69-.5.29v292.72l.5.29,84.08,48.54.25-.14v.29l84.33,48.68h.01s84.33,48.7,84.33,48.7l84.33-48.69h0s84.34-48.69,84.34-48.69l.12-.22.13.07,84.08-48.54.5-.29Z"/>
  <polygon class="cls-1" points="551.23 486.86 551.23 487.44 467.15 535.98 467.02 535.91 466.9 535.84 466.9 439.13 466.9 438.17 466.9 341.07 382.56 389.48 382.56 487.73 382.56 584.81 382.56 584.82 298.23 633.51 298.23 536.12 298.23 438.46 298.23 340.79 382.56 292.1 466.9 243.41 551.23 194.72 551.23 486.86"/>
  <polygon class="cls-1" points="466.9 438.17 466.9 439.13 382.56 487.73 382.56 389.48 466.9 341.07 466.9 438.17"/>
  <polyline class="cls-2" points="45.23 194.14 129.56 145.45 213.9 96.76 298.23 48.07 382.56 96.76 466.9 145.45 551.23 194.14"/>
  <polyline class="cls-2" points="551.23 194.72 466.9 243.41 382.56 292.1 298.23 340.79 213.9 292.1 129.56 243.41 45.23 194.72"/>
  <polygon class="cls-2" points="551.23 194.14 551.73 194.43 551.73 487.15 551.23 487.44 551.23 486.86 551.23 194.72 551.23 194.14"/>
  <line class="cls-2" x1="466.9" y1="536.13" x2="382.56" y2="584.81"/>
  <line class="cls-2" x1="551.68" y1="487.12" x2="551.23" y2="486.86"/>
  <polyline class="cls-2" points="298.23 340.79 298.23 438.46 213.9 389.77 213.9 389.48 213.65 389.62 129.56 341.07 129.56 438.17 129.07 438.46 129.56 438.74 213.65 487.29 213.9 487.43 298.23 536.12 298.23 633.51 213.9 584.82 213.9 584.81 213.89 584.81 129.56 536.13 129.56 535.84 129.31 535.98 45.23 487.44"/>
  <line class="cls-2" x1="551.68" y1="194.46" x2="551.23" y2="194.72"/>
  <line class="cls-2" x1="298.23" y1="536.12" x2="298.23" y2="438.46"/>
  <polyline class="cls-2" points="551.23 487.44 467.15 535.98 467.02 535.91 466.9 535.84 466.9 439.13 466.9 438.17 466.9 341.07 382.56 389.48 382.56 487.73 382.56 584.81 382.56 584.82 298.23 633.51"/>
  <line class="cls-2" x1="382.56" y1="487.73" x2="466.9" y2="439.13"/>
  <polygon class="cls-2" points="45.23 486.86 45.23 487.44 44.73 487.15 44.73 194.43 45.23 194.14 45.23 194.72 45.23 486.86"/>
</svg>